<?xml version="1.0" encoding="UTF-8" standalone="no"?>
<svg
   xmlns:dc="http://purl.org/dc/elements/1.1/"
   xmlns:cc="http://creativecommons.org/ns#"
   xmlns:rdf="http://www.w3.org/1999/02/22-rdf-syntax-ns#"
   xmlns:svg="http://www.w3.org/2000/svg"
   xmlns="http://www.w3.org/2000/svg"
   xmlns:sodipodi="http://sodipodi.sourceforge.net/DTD/sodipodi-0.dtd"
   xmlns:inkscape="http://www.inkscape.org/namespaces/inkscape"
   width="328.38754mm"
   height="226.48399mm"
   id="svg2"
   version="1.1"
   inkscape:version="0.91 r13725"
   sodipodi:docname="Cardboard.svg">
  <metadata
     id="metadata294">
    <rdf:RDF>
      <cc:Work
         rdf:about="">
        <dc:format>image/svg+xml</dc:format>
        <dc:type
           rdf:resource="http://purl.org/dc/dcmitype/StillImage" />
        <dc:title></dc:title>
      </cc:Work>
    </rdf:RDF>
  </metadata>
  <sodipodi:namedview
     pagecolor="#ffffff"
     bordercolor="#666666"
     borderopacity="1"
     objecttolerance="10"
     gridtolerance="10"
     guidetolerance="10"
     inkscape:pageopacity="0"
     inkscape:pageshadow="2"
     inkscape:window-width="1480"
     inkscape:window-height="937"
     id="namedview292"
     showgrid="false"
     fit-margin-top="10"
     fit-margin-left="10"
     fit-margin-right="10"
     fit-margin-bottom="10"
     units="mm"
     borderlayer="true"
     inkscape:zoom="0.63429569"
     inkscape:cx="532.35707"
     inkscape:cy="490.10122"
     inkscape:window-x="0"
     inkscape:window-y="658"
     inkscape:window-maximized="0"
     inkscape:current-layer="g20" />
  <desc
     id="desc4">/Users/Louis/Desktop/MykroscopeCardboard.dxf - scale = 1.000000, origin = (0.000000, 0.000000), auto = True</desc>
  <defs
     id="defs6">
    <marker
       id="DistanceX"
       orient="auto"
       refX="0"
       refY="0"
       style="overflow:visible">
      <path
         d="M 3,-3 -3,3 M 0,-5 0,5"
         style="stroke:#000000;stroke-width:0.5"
         id="path9"
         inkscape:connector-curvature="0" />
    </marker>
    <pattern
       height="8"
       id="Hatch"
       patternUnits="userSpaceOnUse"
       width="8"
       x="0"
       y="0">
      <path
         d="M8 4 l-4,4"
         linecap="square"
         stroke="#000000"
         stroke-width="0.25"
         id="path12" />
      <path
         d="M6 2 l-4,4"
         linecap="square"
         stroke="#000000"
         stroke-width="0.25"
         id="path14" />
      <path
         d="M4 0 l-4,4"
         linecap="square"
         stroke="#000000"
         stroke-width="0.25"
         id="path16" />
    </pattern>
    <symbol
       id="*MODEL_SPACE" />
    <symbol
       id="*PAPER_SPACE" />
  </defs>
  <g
     inkscape:groupmode="layer"
     inkscape:label="0"
     id="g20"
     transform="translate(160.30983,-213.78001)">
    <path
       d="m 671.64285,816.64222 276.20393,0"
       style="fill:none;stroke:#000000"
       id="path22"
       inkscape:connector-curvature="0" />
    <path
       d="m 947.84678,816.64222 0,-18.60237"
       style="fill:none;stroke:#000000"
       id="path24"
       inkscape:connector-curvature="0" />
    <path
       d="m 947.84678,798.03985 8.1496,0"
       style="fill:none;stroke:#000000"
       id="path26"
       inkscape:connector-curvature="0" />
    <path
       d="m 955.99638,798.03985 0,4.96063"
       style="fill:none;stroke:#000000"
       id="path28"
       inkscape:connector-curvature="0" />
    <path
       d="m 955.99638,803.00048 0.70866,0"
       style="fill:none;stroke:#000000"
       id="path30"
       inkscape:connector-curvature="0" />
    <path
       d="m 956.70504,803.00048 a 10.629921,10.629921 0 0 0 10.62993,-10.62992"
       style="fill:none;stroke:#000000"
       id="path32"
       inkscape:connector-curvature="0" />
    <path
       d="m 967.33497,792.37056 0,-57.7559"
       style="fill:none;stroke:#000000"
       id="path34"
       inkscape:connector-curvature="0" />
    <path
       d="M 967.33497,734.61466 A 10.629921,10.629921 0 0 0 956.70504,723.98474"
       style="fill:none;stroke:#000000"
       id="path36"
       inkscape:connector-curvature="0" />
    <path
       d="m 956.70504,723.98474 -0.70866,0"
       style="fill:none;stroke:#000000"
       id="path38"
       inkscape:connector-curvature="0" />
    <path
       d="m 955.99638,723.98474 0,4.96063"
       style="fill:none;stroke:#000000"
       id="path40"
       inkscape:connector-curvature="0" />
    <path
       d="m 955.99638,728.94537 -8.1496,0"
       style="fill:none;stroke:#000000"
       id="path42"
       inkscape:connector-curvature="0" />
    <path
       d="m 947.84678,728.94537 0,-54.03857"
       style="fill:none;stroke:#000000"
       id="path44"
       inkscape:connector-curvature="0" />
    <path
       d="m 947.84678,674.9068 8.1496,0"
       style="fill:none;stroke:#000000"
       id="path46"
       inkscape:connector-curvature="0" />
    <path
       d="m 955.99638,674.9068 0,4.96063"
       style="fill:none;stroke:#000000"
       id="path48"
       inkscape:connector-curvature="0" />
    <path
       d="m 955.99638,679.86743 0.70866,0"
       style="fill:none;stroke:#000000"
       id="path50"
       inkscape:connector-curvature="0" />
    <path
       d="m 956.70504,679.86743 a 10.629921,10.629921 0 0 0 10.62993,-10.62992"
       style="fill:none;stroke:#000000"
       id="path52"
       inkscape:connector-curvature="0" />
    <path
       d="m 967.33497,669.23751 0,-22.32284"
       style="fill:none;stroke:#000000"
       id="path54"
       inkscape:connector-curvature="0" />
    <path
       d="M 967.33497,646.91467 A 10.629921,10.629921 0 0 0 956.70504,636.28475"
       style="fill:none;stroke:#000000"
       id="path56"
       inkscape:connector-curvature="0" />
    <path
       d="m 956.70504,636.28475 -0.70866,0"
       style="fill:none;stroke:#000000"
       id="path58"
       inkscape:connector-curvature="0" />
    <path
       d="m 955.99638,636.28475 0,4.96063"
       style="fill:none;stroke:#000000"
       id="path60"
       inkscape:connector-curvature="0" />
    <path
       d="m 955.99638,641.24538 -8.1496,0"
       style="fill:none;stroke:#000000"
       id="path62"
       inkscape:connector-curvature="0" />
    <path
       d="m 947.84678,641.24538 0,-18.95669"
       style="fill:none;stroke:#000000"
       id="path64"
       inkscape:connector-curvature="0" />
    <path
       d="m 947.84678,622.28869 -46.41733,0"
       style="fill:none;stroke:#000000"
       id="path66"
       inkscape:connector-curvature="0" />
    <path
       d="m 901.42945,622.28869 0,-4.6063"
       style="fill:none;stroke:#000000"
       id="path68"
       inkscape:connector-curvature="0" />
    <path
       d="m 901.42945,617.68239 -177.16535,0"
       style="fill:none;stroke:#000000"
       id="path70"
       inkscape:connector-curvature="0" />
    <path
       d="m 724.2641,617.68239 0,78.31022"
       style="fill:none;stroke:#000000"
       id="path72"
       inkscape:connector-curvature="0" />
    <path
       d="m 724.2641,695.99261 -0.70866,0"
       style="fill:none;stroke:#000000"
       id="path74"
       inkscape:connector-curvature="0" />
    <path
       d="m 723.55544,695.99261 0,-322.26378"
       style="fill:none;stroke:#000000"
       id="path76"
       inkscape:connector-curvature="0" />
    <path
       d="m 723.55544,373.72883 -98.68424,0"
       style="fill:none;stroke:#000000"
       id="path78"
       inkscape:connector-curvature="0" />
    <path
       d="m 624.8712,373.72883 0,-105.59055"
       style="fill:none;stroke:#000000"
       id="path80"
       inkscape:connector-curvature="0" />
    <path
       d="M 624.8712,268.13828 606.446,249.71308"
       style="fill:none;stroke:#000000"
       id="path82"
       inkscape:connector-curvature="0" />
    <path
       d="m 606.446,249.71308 -713.28025,0"
       style="fill:none;stroke:#000000"
       id="path84"
       inkscape:connector-curvature="0" />
    <path
       d="m -106.83425,249.71308 0,26.83709"
       style="fill:none;stroke:#000000"
       id="path86"
       inkscape:connector-curvature="0" />
    <path
       d="m -106.83425,276.55017 8.681099,0"
       style="fill:none;stroke:#000000"
       id="path88"
       inkscape:connector-curvature="0" />
    <path
       d="m -98.153151,276.55017 0,0.70867"
       style="fill:none;stroke:#000000"
       id="path90"
       inkscape:connector-curvature="0" />
    <path
       d="m -98.153151,277.25884 -14.885029,0"
       style="fill:none;stroke:#000000"
       id="path92"
       inkscape:connector-curvature="0" />
    <path
       d="m -113.03818,277.25884 0,-4.96063"
       style="fill:none;stroke:#000000"
       id="path94"
       inkscape:connector-curvature="0" />
    <path
       d="m -113.03818,272.29821 -0.70866,0"
       style="fill:none;stroke:#000000"
       id="path96"
       inkscape:connector-curvature="0" />
    <path
       d="m -113.74684,272.29821 a 10.629921,10.629921 0 0 0 -10.62992,10.62992"
       style="fill:none;stroke:#000000"
       id="path98"
       inkscape:connector-curvature="0" />
    <path
       d="m -124.37676,282.92813 0,57.7559"
       style="fill:none;stroke:#000000"
       id="path100"
       inkscape:connector-curvature="0" />
    <path
       d="m -124.37676,340.68403 a 10.629921,10.629921 0 0 0 10.62992,10.62992"
       style="fill:none;stroke:#000000"
       id="path102"
       inkscape:connector-curvature="0" />
    <path
       d="m -113.74684,351.31395 0.70866,0"
       style="fill:none;stroke:#000000"
       id="path104"
       inkscape:connector-curvature="0" />
    <path
       d="m -113.03818,351.31395 0,-4.96063"
       style="fill:none;stroke:#000000"
       id="path106"
       inkscape:connector-curvature="0" />
    <path
       d="m -113.03818,346.35332 14.885029,0"
       style="fill:none;stroke:#000000"
       id="path108"
       inkscape:connector-curvature="0" />
    <path
       d="m -98.153151,346.35332 0,0.70866"
       style="fill:none;stroke:#000000"
       id="path110"
       inkscape:connector-curvature="0" />
    <path
       d="m -98.153151,347.06198 -8.681099,0"
       style="fill:none;stroke:#000000"
       id="path112"
       inkscape:connector-curvature="0" />
    <path
       d="m -106.83425,347.06198 0,34.27804"
       style="fill:none;stroke:#000000"
       id="path114"
       inkscape:connector-curvature="0" />
    <path
       d="m -106.83425,381.34002 79.37321,0"
       style="fill:none;stroke:#000000"
       id="path116"
       inkscape:connector-curvature="0" />
    <path
       d="m -27.46104,381.34002 0,11.1545"
       style="fill:none;stroke:#000000"
       id="path118"
       inkscape:connector-curvature="0" />
    <path
       d="m -27.46104,392.49452 13.464567,0"
       style="fill:none;stroke:#000000"
       id="path120"
       inkscape:connector-curvature="0" />
    <path
       d="m -13.996473,392.49452 0,0.70866"
       style="fill:none;stroke:#000000"
       id="path122"
       inkscape:connector-curvature="0" />
    <path
       d="m -13.996473,393.20318 -14.885025,0"
       style="fill:none;stroke:#000000"
       id="path124"
       inkscape:connector-curvature="0" />
    <path
       d="m -28.881498,393.20318 0,-4.96063"
       style="fill:none;stroke:#000000"
       id="path126"
       inkscape:connector-curvature="0" />
    <path
       d="m -28.881498,388.24255 -0.708661,0"
       style="fill:none;stroke:#000000"
       id="path128"
       inkscape:connector-curvature="0" />
    <path
       d="M -29.590159,388.24255 A 10.629921,10.629921 0 0 0 -40.22008,398.87247"
       style="fill:none;stroke:#000000"
       id="path130"
       inkscape:connector-curvature="0" />
    <path
       d="m -40.22008,398.87247 0,94.97447"
       style="fill:none;stroke:#000000"
       id="path132"
       inkscape:connector-curvature="0" />
    <path
       d="m -40.22008,493.84694 a 10.629921,10.629921 0 0 0 10.629921,10.62992"
       style="fill:none;stroke:#000000"
       id="path134"
       inkscape:connector-curvature="0" />
    <path
       d="m -29.590159,504.47686 0.708661,0"
       style="fill:none;stroke:#000000"
       id="path136"
       inkscape:connector-curvature="0" />
    <path
       d="m -28.881498,504.47686 0,-4.96063"
       style="fill:none;stroke:#000000"
       id="path138"
       inkscape:connector-curvature="0" />
    <path
       d="m -28.881498,499.51623 14.885025,0"
       style="fill:none;stroke:#000000"
       id="path140"
       inkscape:connector-curvature="0" />
    <path
       d="m -13.996473,499.51623 0,0.70866"
       style="fill:none;stroke:#000000"
       id="path142"
       inkscape:connector-curvature="0" />
    <path
       d="m -13.996473,500.22489 -13.996063,0"
       style="fill:none;stroke:#000000"
       id="path144"
       inkscape:connector-curvature="0" />
    <path
       d="m -27.992536,500.22489 0,136.77166"
       style="fill:none;stroke:#000000"
       id="path146"
       inkscape:connector-curvature="0" />
    <path
       d="m -27.992536,636.99655 13.996063,0"
       style="fill:none;stroke:#000000"
       id="path148"
       inkscape:connector-curvature="0" />
    <path
       d="m -13.996473,636.99655 0,0.70866"
       style="fill:none;stroke:#000000"
       id="path150"
       inkscape:connector-curvature="0" />
    <path
       d="m -13.996473,637.70521 -14.885025,0"
       style="fill:none;stroke:#000000"
       id="path152"
       inkscape:connector-curvature="0" />
    <path
       d="m -28.881498,637.70521 0,-4.96063"
       style="fill:none;stroke:#000000"
       id="path154"
       inkscape:connector-curvature="0" />
    <path
       d="m -28.881498,632.74458 -0.708661,0"
       style="fill:none;stroke:#000000"
       id="path156"
       inkscape:connector-curvature="0" />
    <path
       d="M -29.590159,632.74458 A 10.629921,10.629921 0 0 0 -40.22008,643.3745"
       style="fill:none;stroke:#000000"
       id="path158"
       inkscape:connector-curvature="0" />
    <path
       d="m -40.22008,643.3745 0,94.96063"
       style="fill:none;stroke:#000000"
       id="path160"
       inkscape:connector-curvature="0" />
    <path
       d="m -40.22008,738.33513 a 10.629921,10.629921 0 0 0 10.629921,10.62992"
       style="fill:none;stroke:#000000"
       id="path162"
       inkscape:connector-curvature="0" />
    <path
       d="m -29.590159,748.96505 0.708661,0"
       style="fill:none;stroke:#000000"
       id="path164"
       inkscape:connector-curvature="0" />
    <path
       d="m -28.881498,748.96505 0,-4.96063"
       style="fill:none;stroke:#000000"
       id="path166"
       inkscape:connector-curvature="0" />
    <path
       d="m -28.881498,744.00442 14.885025,0"
       style="fill:none;stroke:#000000"
       id="path168"
       inkscape:connector-curvature="0" />
    <path
       d="m -13.996473,744.00442 0,0.70866"
       style="fill:none;stroke:#000000"
       id="path170"
       inkscape:connector-curvature="0" />
    <path
       d="m -13.996473,744.71308 -13.996063,0"
       style="fill:none;stroke:#000000"
       id="path172"
       inkscape:connector-curvature="0" />
    <path
       d="m -27.992536,744.71308 0,71.92914"
       style="fill:none;stroke:#000000"
       id="path174"
       inkscape:connector-curvature="0" />
    <path
       d="m -27.992536,816.64222 6.756399,5.66929"
       style="fill:none;stroke:#000000"
       id="path176"
       inkscape:connector-curvature="0" />
    <path
       d="m -21.236137,822.31151 0.844549,4.7866"
       style="fill:none;stroke:#000000"
       id="path178"
       inkscape:connector-curvature="0" />
    <path
       d="m -20.391588,827.09811 0,76.53857"
       style="fill:none;stroke:#000000"
       id="path180"
       inkscape:connector-curvature="0" />
    <path
       d="m -20.391588,903.63668 17.7165355,0"
       style="fill:none;stroke:#000000"
       id="path182"
       inkscape:connector-curvature="0" />
    <path
       d="m -2.6750525,903.63668 0,0.70866"
       style="fill:none;stroke:#000000"
       id="path184"
       inkscape:connector-curvature="0" />
    <path
       d="m -2.6750525,904.34534 -17.7165355,0"
       style="fill:none;stroke:#000000"
       id="path186"
       inkscape:connector-curvature="0" />
    <path
       d="M -20.391588,909.48313 3.5001565,969.21249"
       style="fill:none;stroke:#000000"
       id="path188"
       inkscape:connector-curvature="0" />
    <path
       d="M 3.5001565,969.21249 A 17.716535,17.716535 0 0 0 19.949548,980.34927"
       style="fill:none;stroke:#000000"
       id="path190"
       inkscape:connector-curvature="0" />
    <path
       d="m 19.949548,980.34927 186.261462,0"
       style="fill:none;stroke:#000000"
       id="path192"
       inkscape:connector-curvature="0" />
    <path
       d="m 206.21101,980.34927 a 17.716535,17.716535 0 0 0 16.4494,-11.13678"
       style="fill:none;stroke:#000000"
       id="path194"
       inkscape:connector-curvature="0" />
    <path
       d="m 222.66041,969.21249 23.89174,-59.72936"
       style="fill:none;stroke:#000000"
       id="path196"
       inkscape:connector-curvature="0" />
    <path
       d="m 246.55215,904.34534 -17.71654,0"
       style="fill:none;stroke:#000000"
       id="path198"
       inkscape:connector-curvature="0" />
    <path
       d="m 228.83561,904.34534 0,-0.70866"
       style="fill:none;stroke:#000000"
       id="path200"
       inkscape:connector-curvature="0" />
    <path
       d="m 228.83561,903.63668 17.71654,0"
       style="fill:none;stroke:#000000"
       id="path202"
       inkscape:connector-curvature="0" />
    <path
       d="m 246.55215,909.48313 0,-5.13779"
       style="fill:none;stroke:#000000"
       id="path204"
       inkscape:connector-curvature="0" />
    <path
       d="m 246.67711,822.31151 -0.12496,4.7866"
       style="fill:none;stroke:#000000"
       id="path206"
       inkscape:connector-curvature="0" />
    <path
       d="m 246.67711,822.31151 0.99965,-5.66929"
       style="fill:none;stroke:#000000"
       id="path208"
       inkscape:connector-curvature="0" />
    <path
       d="m 247.67676,816.64222 11.16455,0"
       style="fill:none;stroke:#000000"
       id="path210"
       inkscape:connector-curvature="0" />
    <path
       d="m 258.84131,816.64222 0,4.7866"
       style="fill:none;stroke:#000000"
       id="path212"
       inkscape:connector-curvature="0" />
    <path
       d="m 258.84131,821.42882 3.5433,64.84252"
       style="fill:none;stroke:#000000"
       id="path214"
       inkscape:connector-curvature="0" />
    <path
       d="m 262.38461,886.27134 51.73229,0"
       style="fill:none;stroke:#000000"
       id="path216"
       inkscape:connector-curvature="0" />
    <path
       d="m 314.1169,886.27134 3.54331,-64.84252"
       style="fill:none;stroke:#000000"
       id="path218"
       inkscape:connector-curvature="0" />
    <path
       d="m 317.66021,821.42882 0,-4.7866"
       style="fill:none;stroke:#000000"
       id="path220"
       inkscape:connector-curvature="0" />
    <path
       d="m 317.66021,816.64222 295.16375,0"
       style="fill:none;stroke:#000000"
       id="path222"
       inkscape:connector-curvature="0" />
    <path
       d="m 612.82396,816.64222 0,4.7866"
       style="fill:none;stroke:#000000"
       id="path224"
       inkscape:connector-curvature="0" />
    <path
       d="m 612.82396,821.42882 3.5433,64.84252"
       style="fill:none;stroke:#000000"
       id="path226"
       inkscape:connector-curvature="0" />
    <path
       d="m 616.36726,886.27134 51.73229,0"
       style="fill:none;stroke:#000000"
       id="path228"
       inkscape:connector-curvature="0" />
    <path
       d="m 668.09955,886.27134 3.5433,-64.84252"
       style="fill:none;stroke:#000000"
       id="path230"
       inkscape:connector-curvature="0" />
    <path
       d="m 671.64285,821.42882 0,-4.7866"
       style="fill:none;stroke:#000000"
       id="path232"
       inkscape:connector-curvature="0" />
    <path
       d="m 676.42945,635.93355 0,109.84252 8.85827,0 0,-109.84252 -8.85827,0 z"
       style="fill:none;stroke:#000000"
       id="path234"
       inkscape:connector-curvature="0" />
    <path
       d="m 252.46336,728.05954 0,70.86614 6.37795,0 0,-70.86614 -6.37795,0 z"
       style="fill:none;stroke:#000000"
       id="path236"
       inkscape:connector-curvature="0" />
    <path
       d="m 252.46336,327.31151 0,28.70078 53.1496,0 0,-28.70078 -53.1496,0 z"
       style="fill:none;stroke:#000000"
       id="path238"
       inkscape:connector-curvature="0" />
    <path
       d="m 252.46336,267.42962 0,28.70079 53.1496,0 0,-28.70079 -53.1496,0 z"
       style="fill:none;stroke:#000000"
       id="path240"
       inkscape:connector-curvature="0" />
    <path
       d="m 271.59721,693.33513 35.43307,0 0,-6.73228 -35.43307,0 0,6.73228 z"
       style="fill:none;stroke:#000000"
       id="path242"
       inkscape:connector-curvature="0" />
    <path
       d="m 374.88775,693.33513 178.93701,0 0,-6.73228 -178.93701,0 0,6.73228 z"
       style="fill:none;stroke:#000000"
       id="path244"
       inkscape:connector-curvature="0" />
    <path
       d="m 432.40416,359.5556 133.82217,0 0,-95.66929 -133.82217,0 -18.54003,27.81004 0,40.04921 18.54003,27.81004 z"
       style="fill:none;stroke:#000000;stroke-width:1;stroke-miterlimit:4;stroke-dasharray:1,12;stroke-dashoffset:0"
       id="path246"
       inkscape:connector-curvature="0" />
    <path
       d="m 605.73734,276.28789 0,70.86614 8.85827,0 0,-70.86614 -8.85827,0 z"
       style="fill:none;stroke:#000000"
       id="path248"
       inkscape:connector-curvature="0" />
    <path
       d="m 656.40663,485.343 -35.43307,0 0,47.83465 35.43307,0 0,-47.83465 z"
       style="fill:none;stroke:#000000"
       id="path250"
       inkscape:connector-curvature="0" />
    <path
       d="m -34.90512,296.13041 0,-28.70079 -53.149606,0 0,28.70079 53.149606,0 z"
       style="fill:none;stroke:#000000"
       id="path252"
       inkscape:connector-curvature="0" />
    <path
       d="m -88.054726,356.01229 53.149606,0 0,-28.70078 -53.149606,0 0,28.70078 z"
       style="fill:none;stroke:#000000"
       id="path254"
       inkscape:connector-curvature="0" />
    <path
       d="m 51.731874,311.72096 a 7.0866145,7.0866145 0 1 0 -14.173229,0 7.0866145,7.0866145 0 0 0 14.173229,0 z"
       style="fill:none;stroke:#000000"
       id="path256"
       inkscape:connector-curvature="0" />
    <path
       d="m 119.05471,311.72096 a 7.086615,7.086615 0 1 0 -14.17323,0 7.086615,7.086615 0 1 0 14.17323,0 z"
       style="fill:none;stroke:#000000"
       id="path258"
       inkscape:connector-curvature="0" />
    <path
       d="m 676.42945,391.44537 0,109.84252 8.85827,0 0,-109.84252 -8.85827,0 z"
       style="fill:none;stroke:#000000"
       id="path260"
       inkscape:connector-curvature="0" />
    <path
       d="m 250.07006,816.64222 0,-566.92914"
       style="fill:none;stroke:#000000;stroke-width:1;stroke-miterlimit:4;stroke-dasharray:1,12;stroke-dashoffset:0"
       id="path262"
       inkscape:connector-curvature="0" />
    <path
       d="m 327.14012,816.64222 0,-566.92914"
       style="fill:none;stroke:#000000;stroke-width:1;stroke-miterlimit:4;stroke-dasharray:1,12;stroke-dashoffset:0"
       id="path264"
       inkscape:connector-curvature="0" />
    <path
       d="m -19.047253,744.00442 0,-106.29921"
       style="fill:none;stroke:#000000;stroke-width:1;stroke-miterlimit:4;stroke-dasharray:1,12;stroke-dashoffset:0"
       id="path266"
       inkscape:connector-curvature="0" />
    <path
       d="m -19.047253,499.51623 0,-106.31305"
       style="fill:none;stroke:#000000;stroke-width:1;stroke-miterlimit:4;stroke-dasharray:1,12;stroke-dashoffset:0"
       id="path268"
       inkscape:connector-curvature="0" />
    <path
       d="m -103.20393,346.35332 0,-69.09448"
       style="fill:none;stroke:#000000;stroke-width:1;stroke-miterlimit:4;stroke-dasharray:1,12;stroke-dashoffset:0"
       id="path270"
       inkscape:connector-curvature="0" />
    <path
       d="m -32.51182,381.34002 0,-131.62694"
       style="fill:none;stroke:#000000;stroke-width:1;stroke-miterlimit:4;stroke-dasharray:1,12;stroke-dashoffset:0"
       id="path272"
       inkscape:connector-curvature="0" />
    <path
       d="m 603.34404,249.71308 0,566.92914"
       style="fill:none;stroke:#000000;stroke-width:1;stroke-miterlimit:4;stroke-dasharray:1,12;stroke-dashoffset:0"
       id="path274"
       inkscape:connector-curvature="0" />
    <path
       d="m 674.03615,373.72883 0,442.91339"
       style="fill:none;stroke:#000000;stroke-width:1;stroke-miterlimit:4;stroke-dasharray:1,12;stroke-dashoffset:0"
       id="path276"
       inkscape:connector-curvature="0" />
    <path
       d="m 724.2641,690.94183 223.58268,0"
       style="fill:none;stroke:#000000;stroke-width:1;stroke-miterlimit:4;stroke-dasharray:1,12;stroke-dashoffset:0"
       id="path278"
       inkscape:connector-curvature="0" />
    <path
       d="m 671.64285,819.03552 -58.81889,0"
       style="fill:none;stroke:#000000;stroke-width:1;stroke-miterlimit:4;stroke-dasharray:1,12;stroke-dashoffset:0"
       id="path280"
       inkscape:connector-curvature="0" />
    <path
       d="m 317.66021,819.03552 -58.8189,0"
       style="fill:none;stroke:#000000;stroke-width:1;stroke-miterlimit:4;stroke-dasharray:1,12;stroke-dashoffset:0"
       id="path282"
       inkscape:connector-curvature="0" />
    <path
       d="m 246.55215,895.39692 -266.943738,0"
       style="fill:none;stroke:#000000;stroke-width:1;stroke-miterlimit:4;stroke-dasharray:1,12;stroke-dashoffset:0"
       id="path284"
       inkscape:connector-curvature="0" />
    <path
       d="m 246.61463,824.70481 -267.428492,0"
       style="fill:none;stroke:#000000;stroke-width:1;stroke-miterlimit:4;stroke-dasharray:1,12;stroke-dashoffset:0"
       id="path286"
       inkscape:connector-curvature="0" />
    <path
       d="m -20.391588,904.34534 0,5.13779"
       style="fill:none;stroke:#000000"
       id="path288"
       inkscape:connector-curvature="0" />
    <path
       d="m 246.55215,903.63668 0,-76.53857"
       style="fill:none;stroke:#000000"
       id="path290"
       inkscape:connector-curvature="0" />
  </g>
</svg>
