0
SECTION
2
HEADER
9
$INSUNITS
70
4
9
$ACADVER
1
AC1014
9
$HANDSEED
5
FFFF
0
ENDSEC
0
SECTION
2
TABLES
0
TABLE
2
VPORT
5
8
100
AcDbSymbolTable
0
ENDTAB
0
TABLE
2
LTYPE
5
5
100
AcDbSymbolTable
0
LTYPE
5
14
100
AcDbSymbolTableRecord
100
AcDbLinetypeTableRecord
2
BYBLOCK
70
0
0
LTYPE
5
15
100
AcDbSymbolTableRecord
100
AcDbLinetypeTableRecord
2
BYLAYER
70
0
0
ENDTAB
0
TABLE
2
LAYER
5
2
100
AcDbSymbolTable
70
2
0
LAYER
5
50
100
AcDbSymbolTableRecord
100
AcDbLayerTableRecord
2
0
70
0
6
CONTINUOUS
0
ENDTAB
0
TABLE
2
STYLE
5
3
100
AcDbSymbolTable
70
1
0
STYLE
5
11
100
AcDbSymbolTableRecord
100
AcDbTextStyleTableRecord
2
STANDARD
70
0
0
ENDTAB
0
TABLE
2
VIEW
5
6
100
AcDbSymbolTable
70
0
0
ENDTAB
0
TABLE
2
UCS
5
7
100
AcDbSymbolTable
70
0
0
ENDTAB
0
TABLE
2
APPID
5
9
100
AcDbSymbolTable
70
2
0
APPID
5
12
100
AcDbSymbolTableRecord
100
AcDbRegAppTableRecord
2
ACAD
70
0
0
ENDTAB
0
TABLE
2
DIMSTYLE
5
A
100
AcDbSymbolTable
70
1
0
ENDTAB
0
TABLE
2
BLOCK_RECORD
5
1
100
AcDbSymbolTable
70
1
0
BLOCK_RECORD
5
1F
100
AcDbSymbolTableRecord
100
AcDbBlockTableRecord
2
*MODEL_SPACE
0
BLOCK_RECORD
5
1B
100
AcDbSymbolTableRecord
100
AcDbBlockTableRecord
2
*PAPER_SPACE
0
ENDTAB
0
ENDSEC
0
SECTION
2
BLOCKS
0
BLOCK
5
20
100
AcDbEntity
100
AcDbBlockBegin
2
*MODEL_SPACE
0
ENDBLK
5
21
100
AcDbEntity
100
AcDbBlockEnd
0
BLOCK
5
1C
100
AcDbEntity
100
AcDbBlockBegin
2
*PAPER_SPACE
0
ENDBLK
5
1D
100
AcDbEntity
100
AcDbBlockEnd
0
ENDSEC
0
SECTION
2
ENTITIES
0
LINE
5
100
100
AcDbEntity
8
0
100
AcDbLine
10
18.400000000000006
20
-160
30
2.7610131682735413e-29
11
96.350884841043694
21
-160
31
2.6426840324903895e-28
0
LINE
5
101
100
AcDbEntity
8
0
100
AcDbLine
10
96.350884841043694
20
-160
30
2.6426840324903895e-28
11
96.350884841043694
21
-154.75
31
2.1299244440967319e-28
0
LINE
5
102
100
AcDbEntity
8
0
100
AcDbLine
10
96.350884841043694
20
-154.75
30
2.1299244440967319e-28
11
98.650884841043691
21
-154.75
31
2.0214560696288428e-28
0
LINE
5
103
100
AcDbEntity
8
0
100
AcDbLine
10
98.650884841043691
20
-154.75
30
2.0214560696288428e-28
11
98.650884841043691
21
-156.15000000000001
31
-4.3387349787155649e-28
0
LINE
5
104
100
AcDbEntity
8
0
100
AcDbLine
10
98.650884841043691
20
-156.15000000000001
30
-4.3387349787155649e-28
11
98.850884841043694
21
-156.15000000000001
31
-4.3356534908045454e-28
0
ARC
5
105
100
AcDbEntity
8
0
100
AcDbCircle
10
98.850884841043651
20
-153.14999999999995
30
-1.3410635388757178e-28
40
3.0000000000000426
100
AcDbArc
50
270.0000000000008
51
360
0
LINE
5
106
100
AcDbEntity
8
0
100
AcDbLine
10
101.85088484104369
20
-153.15000000000001
30
-1.4653091314480297e-28
11
101.85088484104369
21
-136.84999999999999
31
2.603240987229339e-28
0
ARC
5
107
100
AcDbEntity
8
0
100
AcDbCircle
10
98.850884841043651
20
-136.85000000000002
30
-1.3410635388757176e-28
40
3.0000000000000426
100
AcDbArc
50
0
51
89.99999999999919
0
LINE
5
108
100
AcDbEntity
8
0
100
AcDbLine
10
98.850884841043694
20
-133.84999999999997
30
-1.3438497782367679e-28
11
98.650884841043691
21
-133.84999999999999
31
-1.3441450267867396e-28
0
LINE
5
109
100
AcDbEntity
8
0
100
AcDbLine
10
98.650884841043691
20
-133.84999999999999
30
-1.3441450267867396e-28
11
98.650884841043691
21
-135.25
31
-4.3387349787155649e-28
0
LINE
5
110
100
AcDbEntity
8
0
100
AcDbLine
10
98.650884841043691
20
-135.25
30
-4.3387349787155649e-28
11
96.350884841043694
21
-135.25
31
-4.2302666042476758e-28
0
LINE
5
111
100
AcDbEntity
8
0
100
AcDbLine
10
96.350884841043694
20
-135.25
30
-4.2302666042476758e-28
11
96.350884841043651
21
-119.99911515895752
31
2.4865630823118897e-28
0
LINE
5
112
100
AcDbEntity
8
0
100
AcDbLine
10
96.350884841043651
20
-119.99911515895752
30
2.4865630823118897e-28
11
98.650884841043649
21
-119.99911515895749
31
-7.6026469740675013e-28
0
LINE
5
113
100
AcDbEntity
8
0
100
AcDbLine
10
98.650884841043649
20
-119.99911515895749
30
-7.6026469740675013e-28
11
98.650884841043649
21
-121.39911515895749
31
-4.0231906166271468e-28
0
LINE
5
114
100
AcDbEntity
8
0
100
AcDbLine
10
98.650884841043649
20
-121.39911515895749
30
-4.0231906166271468e-28
11
98.850884841043651
21
-121.39911515895749
31
-4.0201091287161406e-28
0
ARC
5
115
100
AcDbEntity
8
0
100
AcDbCircle
10
98.850884841043666
20
-118.3991151589575
30
-1.0255191767873171e-28
40
2.9999999999999893
100
AcDbArc
50
-90.000000000000256
51
0
0
LINE
5
116
100
AcDbEntity
8
0
100
AcDbLine
10
101.85088484104367
20
-118.39911515895747
30
-1.1497647693596245e-28
11
101.85088484104358
21
-112.09911515895747
31
3.5909683496212945e-28
0
ARC
5
117
100
AcDbEntity
8
0
100
AcDbCircle
10
98.850884841043552
20
-112.09911515895753
30
-2.3665827156630929e-29
40
3.0000000000000426
100
AcDbArc
50
0
51
90
0
LINE
5
118
100
AcDbEntity
8
0
100
AcDbLine
10
98.850884841043552
20
-109.09911515895749
30
1.1998036664886142e-29
11
98.650884841043549
21
-109.09911515895749
31
7.5804602611081603e-30
0
LINE
5
119
100
AcDbEntity
8
0
100
AcDbLine
10
98.650884841043549
20
-109.09911515895749
30
7.5804602611081603e-30
11
98.650884841043549
21
-110.49911515895749
31
1.7276053824340173e-27
0
LINE
5
120
100
AcDbEntity
8
0
100
AcDbLine
10
98.650884841043549
20
-110.49911515895749
30
1.7276053824340173e-27
11
96.35088484104358
21
-110.49911515895751
31
1.7340148772889366e-27
0
LINE
5
121
100
AcDbEntity
8
0
100
AcDbLine
10
96.35088484104358
20
-110.49911515895751
30
1.7340148772889366e-27
11
96.350884841043694
21
-105.1491151589575
31
1.2104061202545224e-27
0
LINE
5
122
100
AcDbEntity
8
0
100
AcDbLine
10
96.350884841043694
20
-105.1491151589575
30
1.2104061202545224e-27
11
83.250884841043558
21
-105.1491151589575
31
1.1635698352009924e-27
0
LINE
5
123
100
AcDbEntity
8
0
100
AcDbLine
10
83.250884841043558
20
-105.1491151589575
30
1.1635698352009924e-27
11
83.250884841043558
21
-103.8491151589575
31
1.1596255306748859e-27
0
LINE
5
124
100
AcDbEntity
8
0
100
AcDbLine
10
83.250884841043558
20
-103.8491151589575
30
1.1596255306748859e-27
11
33.250884841043565
21
-103.84911515895749
31
9.1507865005637369e-28
0
LINE
5
125
100
AcDbEntity
8
0
100
AcDbLine
10
33.250884841043565
20
-103.84911515895749
30
9.1507865005637369e-28
11
33.25088484104355
21
-125.95
31
-7.683137671574077e-29
0
LINE
5
126
100
AcDbEntity
8
0
100
AcDbLine
10
33.25088484104355
20
-125.95
30
-7.683137671574077e-29
11
33.050884841043555
21
-125.95
31
-7.9194239313203138e-29
0
LINE
5
127
100
AcDbEntity
8
0
100
AcDbLine
10
33.050884841043555
20
-125.95
30
-7.9194239313203138e-29
11
33.050884841043519
21
-35
31
1.3032717244804224e-28
0
LINE
5
128
100
AcDbEntity
8
0
100
AcDbLine
10
33.050884841043519
20
-35
30
1.3032717244804224e-28
11
5.2000000000000046
21
-35
31
-1.1438483125704671e-28
0
LINE
5
129
100
AcDbEntity
8
0
100
AcDbLine
10
5.2000000000000046
20
-35
30
-1.1438483125704671e-28
11
5.2000000000000046
21
-5.1999999999999957
31
-2.1693674893577808e-29
0
LINE
5
130
100
AcDbEntity
8
0
100
AcDbLine
10
5.2000000000000046
20
-5.1999999999999957
30
-2.1693674893577808e-29
11
0
21
0
31
-2.3665827156630354e-29
0
LINE
5
131
100
AcDbEntity
8
0
100
AcDbLine
10
0
20
0
30
-2.3665827156630354e-29
11
-201.30353936417441
21
4.0149878088868718e-07
31
9.4663308626521417e-29
0
LINE
5
132
100
AcDbEntity
8
0
100
AcDbLine
10
-201.30353936417441
20
4.0149878088868718e-07
30
9.4663308626521417e-29
11
-201.30353936417441
21
-7.5740235985012205
31
1.1832913578315177e-28
0
LINE
5
133
100
AcDbEntity
8
0
100
AcDbLine
10
-201.30353936417441
20
-7.5740235985012205
30
1.1832913578315177e-28
11
-198.85353936417445
21
-7.5740235985012205
31
1.2276647837501996e-28
0
LINE
5
134
100
AcDbEntity
8
0
100
AcDbLine
10
-198.85353936417445
20
-7.5740235985012205
30
1.2276647837501996e-28
11
-198.85353936417445
21
-7.7740235985012163
31
-7.8886090522101181e-30
0
LINE
5
135
100
AcDbEntity
8
0
100
AcDbLine
10
-198.85353936417445
20
-7.7740235985012163
30
-7.8886090522101181e-30
11
-203.05442420521808
21
-7.7740235985012163
31
2.2679751025104089e-29
0
LINE
5
136
100
AcDbEntity
8
0
100
AcDbLine
10
-203.05442420521808
20
-7.7740235985012163
30
2.2679751025104089e-29
11
-203.05442420521808
21
-6.3740235985012106
31
-3.944304526105059e-29
0
LINE
5
137
100
AcDbEntity
8
0
100
AcDbLine
10
-203.05442420521808
20
-6.3740235985012106
30
-3.944304526105059e-29
11
-203.25442420521807
21
-6.3740235985012106
31
-3.9751194052152548e-29
0
ARC
5
138
100
AcDbEntity
8
0
100
AcDbCircle
10
-203.25442420521807
20
-9.3740235985012212
30
1.4988357199199224e-28
40
3.0000000000000107
100
AcDbArc
50
90
51
180
0
LINE
5
139
100
AcDbEntity
8
0
100
AcDbLine
10
-206.25442420521807
20
-9.3740235985012177
30
1.4751698927632921e-28
11
-206.25442420521807
21
-25.674023598501208
31
-2.2876966251409342e-28
0
ARC
5
140
100
AcDbEntity
8
0
100
AcDbCircle
10
-203.25442420521807
20
-25.67402359850119
30
1.8143800820083272e-28
40
3.0000000000000071
100
AcDbArc
50
180
51
269.99999999999943
0
LINE
5
141
100
AcDbEntity
8
0
100
AcDbLine
10
-203.2544242052181
20
-28.674023598501233
30
1.8140848334583635e-28
11
-203.05442420521808
21
-28.674023598501215
31
1.815612677172735e-28
0
LINE
5
142
100
AcDbEntity
8
0
100
AcDbLine
10
-203.05442420521808
20
-28.674023598501215
30
1.815612677172735e-28
11
-203.05442420521808
21
-27.274023598501209
31
-3.944304526105059e-29
0
LINE
5
143
100
AcDbEntity
8
0
100
AcDbLine
10
-203.05442420521808
20
-27.274023598501209
30
-3.944304526105059e-29
11
-198.85353936417445
21
-27.274023598501209
31
-3.8456969129524326e-29
0
LINE
5
144
100
AcDbEntity
8
0
100
AcDbLine
10
-198.85353936417445
20
-27.274023598501209
30
-3.8456969129524326e-29
11
-198.85353936417445
21
-27.474023598501205
31
-7.8886090522101181e-30
0
LINE
5
145
100
AcDbEntity
8
0
100
AcDbLine
10
-198.85353936417445
20
-27.474023598501205
30
-7.8886090522101181e-30
11
-201.30353936417441
21
-27.474023598501205
31
-1.2325951644078309e-29
0
LINE
5
146
100
AcDbEntity
8
0
100
AcDbLine
10
-201.30353936417441
20
-27.474023598501205
30
-1.2325951644078309e-29
11
-201.30353936417441
21
-37.148047598501215
31
1.1832913578315177e-28
0
LINE
5
147
100
AcDbEntity
8
0
100
AcDbLine
10
-201.30353936417441
20
-37.148047598501215
30
1.1832913578315177e-28
11
-178.90265452313082
21
-37.148047598501215
31
5.5220263365470826e-29
0
LINE
5
148
100
AcDbEntity
8
0
100
AcDbLine
10
-178.90265452313082
20
-37.148047598501215
30
5.5220263365470826e-29
11
-178.90265452313082
21
-40.296095197002444
31
5.5220263365470826e-29
0
LINE
5
149
100
AcDbEntity
8
0
100
AcDbLine
10
-178.90265452313082
20
-40.296095197002444
30
5.5220263365470826e-29
11
-175.10265452313081
21
-40.296095197002458
31
5.2755073036655164e-29
0
LINE
5
150
100
AcDbEntity
8
0
100
AcDbLine
10
-175.10265452313081
20
-40.296095197002458
30
5.2755073036655164e-29
11
-175.10265452313081
21
-40.496095197002461
31
1.4988357199199224e-28
0
LINE
5
151
100
AcDbEntity
8
0
100
AcDbLine
10
-175.10265452313081
20
-40.496095197002461
30
1.4988357199199224e-28
11
-179.30353936417444
21
-40.496095197002461
31
1.4889749586046598e-28
0
LINE
5
152
100
AcDbEntity
8
0
100
AcDbLine
10
-179.30353936417444
20
-40.496095197002461
30
1.4889749586046598e-28
11
-179.30353936417444
21
-39.096095197002455
31
1.1832913578315177e-28
0
LINE
5
153
100
AcDbEntity
8
0
100
AcDbLine
10
-179.30353936417444
20
-39.096095197002455
30
1.1832913578315177e-28
11
-179.50353936417443
21
-39.096095197002455
31
1.1802098699204981e-28
0
ARC
5
154
100
AcDbEntity
8
0
100
AcDbCircle
10
-179.5035393641744
20
-42.096095197002484
30
5.5220263365470815e-29
40
3.0000000000000338
100
AcDbArc
50
90.00000000000054
51
180
0
LINE
5
155
100
AcDbEntity
8
0
100
AcDbLine
10
-182.5035393641744
20
-42.096095197002455
30
5.5811909044386585e-29
11
-182.50353936417443
21
-68.900000000000006
31
-7.0997481469891062e-29
0
ARC
5
156
100
AcDbEntity
8
0
100
AcDbCircle
10
-179.5035393641744
20
-68.899999999999977
30
5.5220263365470849e-29
40
3.0000000000000426
100
AcDbArc
50
180
51
269.99999999999943
0
LINE
5
157
100
AcDbEntity
8
0
100
AcDbLine
10
-179.50353936417443
20
-71.90000000000002
30
5.5220263365470927e-29
11
-179.30353936417444
21
-71.900000000000006
31
5.5528412156572784e-29
0
LINE
5
158
100
AcDbEntity
8
0
100
AcDbLine
10
-179.30353936417444
20
-71.900000000000006
30
5.5528412156572784e-29
11
-179.30353936417444
21
-70.5
31
1.1832913578315177e-28
0
LINE
5
159
100
AcDbEntity
8
0
100
AcDbLine
10
-179.30353936417444
20
-70.5
30
1.1832913578315177e-28
11
-175.10265452313081
21
-70.5
31
1.1931521191467804e-28
0
LINE
5
160
100
AcDbEntity
8
0
100
AcDbLine
10
-175.10265452313081
20
-70.5
30
1.1931521191467804e-28
11
-175.10265452313081
21
-70.700000000000003
31
1.4988357199199224e-28
0
LINE
5
161
100
AcDbEntity
8
0
100
AcDbLine
10
-175.10265452313081
20
-70.700000000000003
30
1.4988357199199224e-28
11
-179.0526545231308
21
-70.700000000000003
31
1.5727914297843923e-28
0
LINE
5
162
100
AcDbEntity
8
0
100
AcDbLine
10
-179.0526545231308
20
-70.700000000000003
30
1.5727914297843923e-28
11
-179.0526545231308
21
-109.3
31
8.6774699574311299e-29
0
LINE
5
163
100
AcDbEntity
8
0
100
AcDbLine
10
-179.0526545231308
20
-109.3
30
8.6774699574311299e-29
11
-175.10265452313081
21
-109.3
31
7.9379128587864313e-29
0
LINE
5
164
100
AcDbEntity
8
0
100
AcDbLine
10
-175.10265452313081
20
-109.3
30
7.9379128587864313e-29
11
-175.10265452313081
21
-109.5
31
1.4988357199199224e-28
0
LINE
5
165
100
AcDbEntity
8
0
100
AcDbLine
10
-175.10265452313081
20
-109.5
30
1.4988357199199224e-28
11
-179.30353936417447
21
-109.5
31
1.5284180038657104e-28
0
LINE
5
166
100
AcDbEntity
8
0
100
AcDbLine
10
-179.30353936417447
20
-109.5
30
1.5284180038657104e-28
11
-179.30353936417447
21
-108.09999999999999
31
1.4988357199199224e-28
0
LINE
5
167
100
AcDbEntity
8
0
100
AcDbLine
10
-179.30353936417447
20
-108.09999999999999
30
1.4988357199199224e-28
11
-179.50353936417446
21
-108.09999999999999
31
1.4957542320089029e-28
0
ARC
5
168
100
AcDbEntity
8
0
100
AcDbCircle
10
-179.50353936417446
20
-111.10000000000001
30
8.6774699574311321e-29
40
3.0000000000000249
100
AcDbArc
50
90
51
180
0
LINE
5
169
100
AcDbEntity
8
0
100
AcDbLine
10
-182.50353936417446
20
-111.09999999999999
30
8.3816471179732493e-29
11
-182.50353936417446
21
-137.89999999999998
31
-3.944304526105059e-29
0
ARC
5
170
100
AcDbEntity
8
0
100
AcDbCircle
10
-179.50353936417446
20
-137.89999999999998
30
8.6774699574311343e-29
40
3.0000000000000071
100
AcDbArc
50
180
51
269.99999999999892
0
LINE
5
171
100
AcDbEntity
8
0
100
AcDbLine
10
-179.50353936417451
20
-140.89999999999998
30
8.7331947446522989e-29
11
-179.30353936417447
21
-140.90000000000001
31
8.7082848365413256e-29
0
LINE
5
172
100
AcDbEntity
8
0
100
AcDbLine
10
-179.30353936417447
20
-140.90000000000001
30
8.7082848365413256e-29
11
-179.30353936417447
21
-139.5
31
1.4988357199199224e-28
0
LINE
5
173
100
AcDbEntity
8
0
100
AcDbLine
10
-179.30353936417447
20
-139.5
30
1.4988357199199224e-28
11
-175.10265452313081
21
-139.5
31
1.4692534359741345e-28
0
LINE
5
174
100
AcDbEntity
8
0
100
AcDbLine
10
-175.10265452313081
20
-139.5
30
1.4692534359741345e-28
11
-175.10265452313081
21
-139.69999999999999
31
1.4988357199199224e-28
0
LINE
5
175
100
AcDbEntity
8
0
100
AcDbLine
10
-175.10265452313081
20
-139.69999999999999
30
1.4988357199199224e-28
11
-179.0526545231308
21
-139.69999999999999
31
1.5727914297843923e-28
0
LINE
5
176
100
AcDbEntity
8
0
100
AcDbLine
10
-179.0526545231308
20
-139.69999999999999
30
1.5727914297843923e-28
11
-179.05265452313077
21
-160
31
8.6774699574311299e-29
0
LINE
5
177
100
AcDbEntity
8
0
100
AcDbLine
10
-179.05265452313077
20
-160
30
8.6774699574311299e-29
11
-177.14584877498015
21
-161.59999999999997
31
5.2755073036655164e-29
0
LINE
5
178
100
AcDbEntity
8
0
100
AcDbLine
10
-177.14584877498015
20
-161.59999999999997
30
5.2755073036655164e-29
11
-176.90749805646129
21
-162.95088484104352
31
2.8041539990278154e-29
0
LINE
5
179
100
AcDbEntity
8
0
100
AcDbLine
10
-176.90749805646129
20
-162.95088484104352
30
2.8041539990278154e-29
11
-176.90749805646135
21
-184.55176968208715
31
-7.8886090522116174e-30
0
LINE
5
180
100
AcDbEntity
8
0
100
AcDbLine
10
-176.90749805646135
20
-184.55176968208715
30
-7.8886090522116174e-30
11
-171.90749805646135
21
-184.55176968208715
31
-1.2818989709841442e-29
0
LINE
5
181
100
AcDbEntity
8
0
100
AcDbLine
10
-171.90749805646135
20
-184.55176968208715
30
-1.2818989709841442e-29
11
-171.90749805646135
21
-184.75176968208714
31
2.366582715663034e-29
0
LINE
5
182
100
AcDbEntity
8
0
100
AcDbLine
10
-171.90749805646135
20
-184.75176968208714
30
2.366582715663034e-29
11
-176.90749805646135
21
-184.75176968208714
31
2.8596207814261678e-29
0
LINE
5
183
100
AcDbEntity
8
0
100
AcDbLine
10
-176.90749805646135
20
-186.20176968208713
30
-7.8886090522101181e-30
11
-170.16471670375313
21
-203.05872306385766
31
4.9303806576313238e-30
0
ARC
5
184
100
AcDbEntity
8
0
100
AcDbCircle
10
-165.52233324932683
20
-201.20176968208716
30
1.1832913578315182e-28
40
4.9999999999999973
100
AcDbArc
50
201.80140948635156
51
270
0
LINE
5
185
100
AcDbEntity
8
0
100
AcDbLine
10
-165.52233324932683
20
-206.20176968208716
30
1.1832913578315126e-28
11
-112.95520789554055
21
-206.20176968208713
31
1.8143800820083272e-28
0
ARC
5
186
100
AcDbEntity
8
0
100
AcDbCircle
10
-112.95520789554055
20
-201.20176968208722
30
-5.5220263365470894e-29
40
4.9999999999999289
100
AcDbArc
50
270
51
338.19859051364904
0
LINE
5
187
100
AcDbEntity
8
0
100
AcDbLine
10
-108.31282444111426
20
-203.05872306385766
30
-5.2262034970891987e-29
11
-101.57004308840605
21
-186.20176968208713
31
-1.5284180038657104e-28
0
LINE
5
188
100
AcDbEntity
8
0
100
AcDbLine
10
-101.57004308840605
20
-184.75176968208714
30
8.6774699574311388e-29
11
-106.57004308840605
21
-184.75176968208714
31
9.1705080231942622e-29
0
LINE
5
189
100
AcDbEntity
8
0
100
AcDbLine
10
-106.57004308840605
20
-184.75176968208714
30
9.1705080231942622e-29
11
-106.57004308840605
21
-184.55176968208715
31
2.3665827156630368e-29
0
LINE
5
190
100
AcDbEntity
8
0
100
AcDbLine
10
-106.57004308840605
20
-184.55176968208715
30
2.3665827156630368e-29
11
-101.57004308840605
21
-184.55176968208715
31
1.873544649899903e-29
0
LINE
5
191
100
AcDbEntity
8
0
100
AcDbLine
10
-101.57004308840605
20
-186.20176968208713
30
8.6774699574311299e-29
11
-101.57004308840605
21
-184.75176968208714
31
8.6774699574311388e-29
0
LINE
5
192
100
AcDbEntity
8
0
100
AcDbLine
10
-101.53477769226434
20
-161.59999999999994
30
-7.8886090522101181e-30
11
-101.57004308840607
21
-162.95088484104352
31
-1.3373657533824966e-29
0
LINE
5
193
100
AcDbEntity
8
0
100
AcDbLine
10
-101.53477769226434
20
-161.59999999999994
30
-7.8886090522101181e-30
11
-101.2526545231308
21
-160
31
-6.1013460638187632e-30
0
LINE
5
194
100
AcDbEntity
8
0
100
AcDbLine
10
-101.2526545231308
20
-160
30
-6.1013460638187632e-30
11
-98.101769682087166
21
-160
31
7.8886090522101181e-30
0
LINE
5
195
100
AcDbEntity
8
0
100
AcDbLine
10
-98.101769682087166
20
-160
30
7.8886090522101181e-30
11
-98.101769682087152
21
-161.35088484104361
31
-7.9711705954977248e-30
0
LINE
5
196
100
AcDbEntity
8
0
100
AcDbLine
10
-98.101769682087152
20
-161.35088484104361
30
-7.9711705954977248e-30
11
-97.101769682087152
21
-179.65088484104359
31
-8.5049066344140335e-30
0
LINE
5
197
100
AcDbEntity
8
0
100
AcDbLine
10
-97.101769682087152
20
-179.65088484104359
30
-8.5049066344140335e-30
11
-82.501769682087073
21
-179.65088484104359
31
-7.8886090522101181e-30
0
LINE
5
198
100
AcDbEntity
8
0
100
AcDbLine
10
-82.501769682087073
20
-179.65088484104359
30
-7.8886090522101181e-30
11
-81.501769682087172
21
-161.35088484104361
31
-6.0397163055983716e-30
0
LINE
5
199
100
AcDbEntity
8
0
100
AcDbLine
10
-81.501769682087172
20
-161.35088484104361
30
-6.0397163055983716e-30
11
-81.501769682087172
21
-160
31
7.8886090522101181e-30
0
LINE
5
200
100
AcDbEntity
8
0
100
AcDbLine
10
-81.501769682087172
20
-160
30
7.8886090522101181e-30
11
1.8000000000000149
21
-160
31
7.8886090522101181e-30
0
LINE
5
201
100
AcDbEntity
8
0
100
AcDbLine
10
1.8000000000000149
20
-160
30
7.8886090522101181e-30
11
1.8000000000000149
21
-161.35088484104358
31
-1.5203949689332058e-30
0
LINE
5
202
100
AcDbEntity
8
0
100
AcDbLine
10
1.8000000000000149
20
-161.35088484104358
30
-1.5203949689332058e-30
11
2.8000000000000025
21
-179.65088484104359
31
-1.873544649899903e-29
0
LINE
5
203
100
AcDbEntity
8
0
100
AcDbLine
10
2.8000000000000025
20
-179.65088484104359
30
-1.873544649899903e-29
11
17.400000000000013
21
-179.65088484104365
31
-2.9582283945787943e-30
0
LINE
5
204
100
AcDbEntity
8
0
100
AcDbLine
10
17.400000000000013
20
-179.65088484104365
30
-2.9582283945787943e-30
11
18.400000000000006
21
-161.35088484104358
31
2.8965986363584027e-29
0
LINE
5
205
100
AcDbEntity
8
0
100
AcDbLine
10
18.400000000000006
20
-161.35088484104358
30
2.8965986363584027e-29
11
18.400000000000006
21
-160
31
2.7610131682735413e-29
0
LWPOLYLINE
5
206
100
AcDbEntity
8
0
100
AcDbPolyline
90
4
70
1
43
0.0
10
19.750884841043515
20
-108.99999999999999
10
19.750884841043515
20
-140
10
22.250884841043515
20
-140
10
22.250884841043515
20
-108.99999999999999
0
LWPOLYLINE
5
207
100
AcDbEntity
8
0
100
AcDbPolyline
90
4
70
1
43
0.0
10
-99.901769682087064
20
-135
10
-99.901769682087064
20
-155
10
-98.101769682087166
20
-155
10
-98.101769682087166
20
-135
0
LWPOLYLINE
5
208
100
AcDbEntity
8
0
100
AcDbPolyline
90
4
70
1
43
0.0
10
-99.901769682087178
20
-21.899999999999995
10
-99.901769682087178
20
-30
10
-84.901769682087178
20
-30
10
-84.901769682087178
20
-21.899999999999995
0
LWPOLYLINE
5
209
100
AcDbEntity
8
0
100
AcDbPolyline
90
4
70
1
43
0.0
10
-99.901769682087178
20
-5
10
-99.901769682087178
20
-13.100000000000005
10
-84.901769682087178
20
-13.100000000000005
10
-84.901769682087178
20
-5
0
LWPOLYLINE
5
210
100
AcDbEntity
8
0
100
AcDbPolyline
90
4
70
1
43
0.0
10
-94.501769682087172
20
-125.20000000000003
10
-84.501769682087172
20
-125.20000000000003
10
-84.501769682087172
20
-123.30000000000001
10
-94.501769682087172
20
-123.30000000000001
0
LWPOLYLINE
5
211
100
AcDbEntity
8
0
100
AcDbPolyline
90
4
70
1
43
0.0
10
-65.350884841043509
20
-125.20000000000059
10
-14.850884841043497
20
-125.20000000000059
10
-14.850884841043497
20
-123.30000000000058
10
-65.350884841043509
20
-123.30000000000058
0
LWPOLYLINE
5
212
100
AcDbEntity
8
0
100
AcDbPolyline
90
6
70
1
43
0.0
10
-49.118476720287454
20
-31.000000000000014
10
-11.350884841043465
20
-31.000000000000014
10
-11.350884841043465
20
-4.0000000000000036
10
-49.118476720287454
20
-4.0000000000000036
10
-54.350884841043467
20
-11.848612181133991
10
-54.350884841043467
20
-23.151387818866009
0
LWPOLYLINE
5
213
100
AcDbEntity
8
0
100
AcDbPolyline
90
4
70
1
43
0.0
10
-0.19999999999999574
20
-7.5
10
-0.19999999999999574
20
-27.5
10
2.3000000000000131
20
-27.5
10
2.3000000000000131
20
-7.5
0
LWPOLYLINE
5
214
100
AcDbEntity
8
0
100
AcDbPolyline
90
4
70
1
43
0.0
10
14.10000000000001
20
-66.5
10
4.1000000000000103
20
-66.5
10
4.1000000000000103
20
-80
10
14.10000000000001
20
-80
0
LWPOLYLINE
5
215
100
AcDbEntity
8
0
100
AcDbPolyline
90
4
70
1
43
0.0
10
-181.00353936417412
20
-13.100000000000005
10
-181.00353936417412
20
-5
10
-196.00353936417412
20
-5
10
-196.00353936417412
20
-13.100000000000005
0
LWPOLYLINE
5
216
100
AcDbEntity
8
0
100
AcDbPolyline
90
4
70
1
43
0.0
10
-196.00353936417412
20
-30
10
-181.00353936417412
20
-30
10
-181.00353936417412
20
-21.899999999999995
10
-196.00353936417412
20
-21.899999999999995
0
CIRCLE
5
217
100
AcDbEntity
8
0
100
AcDbCircle
10
-158.55265452313091
20
-17.5
30
-3.944304526105059e-29
40
2.0000000000000018
0
CIRCLE
5
218
100
AcDbEntity
8
0
100
AcDbCircle
10
-139.55265452313088
20
-17.5
30
2.3665827156630354e-29
40
2.0000000000000018
0
LWPOLYLINE
5
219
100
AcDbEntity
8
0
100
AcDbPolyline
90
4
70
1
43
0.0
10
19.750884841043515
20
-40
10
19.750884841043515
20
-71
10
22.250884841043515
20
-71
10
22.250884841043515
20
-40
0
LINE
5
220
100
AcDbEntity
8
0
100
AcDbLine
10
-100.577212102609
20
-160
30
-7.8886090522101181e-30
11
-100.577212102609
21
0
31
-7.8886090522101181e-30
0
LINE
5
221
100
AcDbEntity
8
0
100
AcDbLine
10
-78.826327261565382
20
-160
30
-7.8886090522101181e-30
11
-78.826327261565382
21
0
31
-7.8886090522101181e-30
0
LINE
5
222
100
AcDbEntity
8
0
100
AcDbLine
10
-176.52809694365263
20
-139.5
30
-7.8886090522101181e-30
11
-176.52809694365263
21
-109.5
31
-7.8886090522101181e-30
0
LINE
5
223
100
AcDbEntity
8
0
100
AcDbLine
10
-176.52809694365263
20
-70.5
30
-7.8886090522101181e-30
11
-176.52809694365263
21
-40.496095197002461
31
-7.8886090522101181e-30
0
LINE
5
224
100
AcDbEntity
8
0
100
AcDbLine
10
-200.27898178469633
20
-27.274023598501209
30
-7.0997481469891062e-29
11
-200.27898178469633
21
-7.7740235985012163
31
-7.0997481469891062e-29
0
LINE
5
225
100
AcDbEntity
8
0
100
AcDbLine
10
-180.32809694365261
20
-37.148047598501215
30
-7.0997481469891062e-29
11
-180.32809694365261
21
4.0149878088868718e-07
31
-7.0997481469891062e-29
0
LINE
5
226
100
AcDbEntity
8
0
100
AcDbLine
10
-0.87544242052175036
20
0
30
3.6977854932234928e-31
11
-0.87544242052175036
21
-160
31
3.6977854932234928e-31
0
LINE
5
227
100
AcDbEntity
8
0
100
AcDbLine
10
19.075442420521817
20
-35
30
1.9721522630525295e-29
11
19.075442420521817
21
-160
31
1.9721522630525295e-29
0
LINE
5
228
100
AcDbEntity
8
0
100
AcDbLine
10
33.250884841043565
20
-124.5245575794788
30
-9.4663308626521417e-29
11
96.350884841043722
21
-124.5245575794788
31
-3.3132158019282496e-28
0
LINE
5
229
100
AcDbEntity
8
0
100
AcDbLine
10
18.400000000000027
20
-160.67544242052179
30
1.1832913578315177e-29
11
1.8000000000000149
21
-160.67544242052179
31
2.1693674893577825e-29
0
LINE
5
230
100
AcDbEntity
8
0
100
AcDbLine
10
-81.501769682087172
20
-160.67544242052182
30
7.8886090522101181e-30
11
-98.101769682087166
21
-160.67544242052182
31
7.8886090522101181e-30
0
LINE
5
231
100
AcDbEntity
8
0
100
AcDbLine
10
-101.57004308840605
20
-182.22632726156536
30
8.6774699574311299e-29
11
-176.90749805646135
21
-182.22632726156536
31
-7.8886090522101181e-30
0
LINE
5
232
100
AcDbEntity
8
0
100
AcDbLine
10
-101.5524103903352
20
-162.27544242052178
30
-7.8886090522101181e-30
11
-177.02667341572069
21
-162.27544242052176
31
-7.0997481469891062e-29
0
LINE
5
233
100
AcDbEntity
8
0
100
AcDbLine
10
-176.90749805646135
20
-184.75176968208714
30
2.8596207814261678e-29
11
-176.90749805646135
21
-186.20176968208713
31
-7.8886090522101181e-30
0
LINE
5
234
100
AcDbEntity
8
0
100
AcDbLine
10
-101.57004308840605
20
-184.55176968208715
30
1.873544649899903e-29
11
-101.57004308840607
21
-162.95088484104352
31
-1.3373657533824966e-29
0
ENDSEC
0
SECTION
2
OBJECTS
0
DICTIONARY
5
C
100
AcDbDictionary
3
ACAD_GROUP
350
D
3
ACAD_MLINESTYLE
350
17
0
DICTIONARY
5
D
100
AcDbDictionary
0
DICTIONARY
5
1A
330
C
100
AcDbDictionary
0
DICTIONARY
5
17
100
AcDbDictionary
0
ENDSEC
0
EOF
